<svg width="161" height="137" viewBox="0 0 161 137" fill="none" xmlns="http://www.w3.org/2000/svg">
<path d="M137.255 4.073C142.721 2.40565 148.295 1.98255 152.552 4.77612C157.067 7.73947 158.14 13.5346 157.862 19.4431C157.575 25.5521 155.807 32.9222 153.333 40.5144C148.496 55.3578 140.738 71.7045 134.904 82.5554C135.56 86.6591 136.406 92.5087 136.977 97.7917C137.284 100.633 137.517 103.356 137.595 105.571C137.633 106.676 137.635 107.702 137.579 108.577C137.529 109.359 137.42 110.342 137.07 111.158C136.606 112.241 135.665 113.129 134.927 113.749C134.087 114.454 133.036 115.191 131.888 115.928C129.582 117.408 126.654 119.031 123.689 120.576C117.748 123.673 111.443 126.573 109.16 127.588C106.539 128.752 96.8464 131.419 84.7314 132.807C72.562 134.202 57.4971 134.364 44.2197 130.199C18.0878 122.001 3.92835 104.311 2.80273 90.8035L2.77246 90.4412L2.83691 90.0828C5.34938 76.2642 9.9251 55.4652 15.498 37.9773C18.2791 29.2503 21.3478 21.2216 24.5879 15.2761C26.2045 12.3098 27.9292 9.73846 29.7705 7.84644C31.5812 5.98593 33.791 4.49219 36.3711 4.33081C40.4863 4.07361 44.3159 5.83379 47.6484 8.39233C50.994 10.961 54.0893 14.5206 56.832 18.366C61.7767 25.2986 65.8353 33.5316 68.3389 39.6501L87.3525 37.9216C95.2197 30.5518 107.412 20.3394 119.343 12.8464C125.475 8.99479 131.671 5.77629 137.255 4.073Z" fill="#5005B3" stroke="white" stroke-width="5.5"/>
<path d="M69.043 99.8502C45.043 123.45 25.543 105 22.043 91.4999C23.543 85.4998 30.8571 78.4998 33.543 76.8502C37.4711 74.4377 49.543 71.3502 56.543 76.3502C63.543 81.3502 69.043 89.8502 69.043 99.8502Z" fill="white"/>
<path d="M109.543 77.8491C102.043 78.3491 91.043 91.8491 89.043 97.3491C90.7096 100.349 95.043 106.849 99.043 108.849C107.344 113 115.543 108.934 118.543 107.349C122.043 105.5 128.043 100.5 128.543 94.4998C128.043 87.4998 117.043 77.3491 109.543 77.8491Z" fill="white"/>
<ellipse cx="49.0165" cy="98.2636" rx="6" ry="10.5" transform="rotate(2.62596 49.0165 98.2636)" fill="#5005B3"/>
<ellipse cx="106.936" cy="98.727" rx="6" ry="10.5" transform="rotate(7.92825 106.936 98.727)" fill="#5005B3"/>
</svg>
