<svg width="12" height="12" viewBox="0 0 12 12" fill="none" xmlns="http://www.w3.org/2000/svg">
<path d="M11.5 3.5L8 6L11.5 8.5V3.5Z" stroke="black" stroke-linecap="round" stroke-linejoin="round"/>
<path d="M3.5 10H7C7.55228 10 8 10.0523 8 9.5V3.5C8 2.94772 7.55228 2.5 7 2.5H1.5C0.947715 2.5 0.5 2.94772 0.5 3.5V7.5" stroke="black" stroke-linecap="round" stroke-linejoin="round"/>
<path d="M3.5625 8.45313H2.20312V7.09375C2.20312 7.04219 2.16094 7 2.10938 7H1.54688C1.49531 7 1.45312 7.04219 1.45312 7.09375V8.45313H0.09375C0.042187 8.45313 0 8.49531 0 8.54687V9.10937C0 9.16094 0.042187 9.20313 0.09375 9.20313H1.45312V10.5625C1.45312 10.614 1.49531 10.6562 1.54688 10.6562H2.10938C2.16094 10.6562 2.20312 10.614 2.20312 10.5625V9.20313H3.5625C3.61406 9.20313 3.65625 9.16094 3.65625 9.10937V8.54687C3.65625 8.49531 3.61406 8.45313 3.5625 8.45313Z" fill="black"/>
</svg>
